<svg xmlns="http://www.w3.org/2000/svg" xmlns:xlink="http://www.w3.org/1999/xlink" aria-hidden="true" role="img" class="iconify iconify--logos" width="31.88" height="32" preserveAspectRatio="xMidYMid meet" viewBox="0 0 256 257"><defs><linearGradient id="IconifyId1813088fe1fbc01fb466" x1="-.828%" x2="57.636%" y1="7.652%" y2="78.411%"><stop offset="0%" stop-color="#41D1FF"></stop><stop offset="100%" stop-color="#BD34FE"></stop></linearGradient><linearGradient id="IconifyId1813088fe1fbc01fb467" x1="43.376%" x2="50.316%" y1="2.242%" y2="89.03%"><stop offset="0%" stop-color="#FFEA83"></stop><stop offset="8.333%" stop-color="#FFDD35"></stop><stop offset="100%" stop-color="#FFA800"></stop></linearGradient></defs><path fill="url(#IconifyId1813088fe1fbc01fb466)" d="M255.153 37.938v134.175a245.04 245.04 0 0 1-50.237 13.958c-2.073.351-4.15.683-6.236.994c-2.06.313-4.126.613-6.193.896c-49.708 9.749-94.885-5.132-109.33-34.153c-14.418-28.997-4.003-71.417 23.116-116.92c4.117-7.006 8.681-13.955 13.593-20.853c5.873-7.915 12.279-15.669 19.082-23.342c5.41-6.252 11.004-12.35 16.731-18.283c.741-.768 1.476-1.536 2.212-2.301c1.148-1.19 2.288-2.417 3.43-3.601c1.44-1.559 2.875-3.099 4.298-4.599c2.433-2.554 4.846-5.089 7.238-7.602c3.678-3.832 7.285-7.646 10.819-11.447c.744-.796 1.477-1.592 2.211-2.389c.891-.944 1.78-1.884 2.667-2.819c.254-.268.508-.536.761-.804c5.928-6.438 11.654-12.825 17.162-19.146c.216-.246.433-.493.649-.738c5.616-6.545 10.979-13.052 16.084-19.528c.302-.374.604-.747.905-1.121c.01-.012.021-.025.031-.037c.332-.416.663-.831.993-1.246c.015-.018.03-.036.045-.054c.328-.416.656-.831.982-1.243c.021-.026.041-.052.062-.078c.656-.833 1.31-1.664 1.959-2.492c.016-.02.032-.041.048-.061c.317-.408.632-.816.946-1.222c.026-.034.052-.068.078-.102c.317-.411.633-.822.947-1.231c.019-.025.038-.05.057-.075c.313-.411.625-.822.936-1.231c.028-.037.056-.074.084-.111c.309-.411.617-.822.923-1.231c.017-.023.034-.046.051-.069c.308-.411.614-.822.919-1.231c.023-.031.046-.062.069-.093c.305-.409.61-.819.913-1.228c.016-.022.032-.044.048-.066c.302-.409.603-.819.903-1.228c.022-.03.044-.06.066-.09c.299-.409.597-.819.894-1.228c.021-.029.042-.058.063-.087c.295-.409.59-.819.883-1.228c.018-.025.036-.05.054-.075c.291-.409.58-.819.868-1.228c.025-.036.05-.072.075-.108c.286-.409.571-.819.855-1.228c.017-.024.034-.048.051-.072c.28-.409.558-.819.835-1.228c.019-.028.038-.056.057-.084c.274-.409.547-.819.819-1.228c.022-.033.044-.066.066-.099c.267-.409.533-.819.798-1.228c.016-.025.032-.05.048-.075c.26-.409.518-.819.775-1.228c.018-.029.036-.058.054-.087c.253-.409.505-.819.756-1.228c.02-.033.04-.066.06-.099c.246-.409.491-.819.735-1.228c.017-.03.034-.06.051-.09c.238-.409.475-.819.711-1.228c.021-.036.042-.072.063-.108c.23-.409.459-.819.687-1.228c.016-.029.032-.058.048-.087c.222-.409.443-.819.663-1.228c.018-.033.036-.066.054-.099c.214-.409.427-.819.639-1.228c.017-.034.034-.068.051-.102c.205-.409.409-.819.612-1.228c.016-.032.032-.064.048-.096c.196-.409.391-.819.585-1.228c.018-.038.036-.076.054-.114c.187-.409.373-.819.558-1.228c.014-.031.028-.062.042-.093c.177-.409.353-.819.528-1.228c.016-.037.032-.074.048-.111c.166-.409.331-.819.495-1.228c.015-.037.03-.074.045-.111c.155-.409.309-.819.462-1.228c.014-.039.028-.078.042-.117c.143-.409.285-.819.426-1.228c.013-.039.026-.078.039-.117c.13-.409.259-.819.387-1.228c.012-.038.024-.076.036-.114c.116-.409.231-.819.345-1.228c.011-.039.022-.078.033-.117c.101-.409.201-.819.3-1.228c.01-.041.02-.082.03-.123c.085-.409.169-.819.252-1.228c.008-.041.016-.082.024-.123c.068-.409.135-.819.201-1.228c.006-.041.012-.082.018-.123c.05-.409.099-.819.147-1.228c.004-.041.008-.082.012-.123c.031-.409.061-.819.09-1.228c.002-.041.004-.082.006-.123c.011-.409.021-.819.03-1.228c.001-.041.001-.082.002-.123c-.009.409-.019.819-.03 1.228c-.002.041-.004.082-.006.123c-.029.409-.059.819-.09 1.228c-.004.041-.008.082-.012.123c-.048.409-.097.819-.147 1.228c-.006.041-.012.082-.018.123c-.066.409-.133.819-.201 1.228c-.008.041-.016.082-.024.123c-.083.409-.167.819-.252 1.228c-.01.041-.02.082-.03.123c-.099.409-.199.819-.3 1.228c-.011.039-.022.078-.033.117c-.114.409-.229.819-.345 1.228c-.012.038-.024.076-.036.114c-.128.409-.257.819-.387 1.228c-.013.039-.026.078-.039.117c-.141.409-.283.819-.426 1.228c-.014.039-.028.078-.042.117c-.153.409-.307.819-.462 1.228c-.015.037-.03.074-.045.111c-.164.409-.329.819-.495 1.228c-.016.037-.032.074-.048.111c-.175.409-.351.819-.528 1.228c-.016.037-.032.074-.048.111c-.185.409-.371.819-.558 1.228c-.014.031-.028.062-.042.093c-.194.409-.389.819-.585 1.228c-.018.038-.036.076-.054.114c-.203.409-.407.819-.612 1.228c-.016.032-.032.064-.048.096c-.212.409-.425.819-.639 1.228c-.017.034-.034.068-.051.102c-.22.409-.441.819-.663 1.228c-.018.033-.036.066-.054.099c-.228.409-.457.819-.687 1.228c-.021.036-.042.072-.063.108c-.236.409-.473.819-.711 1.228c-.017.03-.034.06-.051.09c-.244.409-.489.819-.735 1.228c-.02.033-.04.066-.06.099c-.251.409-.503.819-.756 1.228c-.018.029-.036.058-.054.087c-.257.409-.515.819-.775 1.228c-.016.025-.032.05-.048.075c-.265.409-.531.819-.798 1.228c-.022.033-.044.066-.066.099c-.272.409-.545.819-.819 1.228c-.022.033-.044.066-.066.099c-.277.409-.555.819-.835 1.228c-.017.024-.034.048-.051.072c-.284.409-.569.819-.855 1.228c-.025.036-.05.072-.075.108c-.288.409-.577.819-.868 1.228c-.018.025-.036.05-.054.075c-.293.409-.588.819-.883 1.228c-.021.029-.042.058-.063.087c-.297.409-.595.819-.894 1.228c-.022.03-.044.06-.066.09c-.3.409-.601.819-.903 1.228c-.016.022-.032.044-.048.066c-.303.409-.608.819-.913 1.228c-.023.031-.046.062-.069.093c-.305.409-.614.822-.923 1.231c-.017.023-.034.046-.051.069c-.306.409-.617.822-.936 1.231c-.019.025-.038.05-.057.075c-.313.411-.625.822-.936 1.231c-.028.037-.056.074-.084.111c-.314.411-.633.822-.947 1.231c-.019.025-.038.05-.057.075c-.317.411-.633.822-.946 1.222c-.026.034-.052.068-.078.102c-.317.408-.632.816-.945 1.222c-.021.026-.041.052-.062.078c-.326.416-.654.831-.982 1.243c-.015.018-.03.036-.045.054c-.33.416-.661.831-.993 1.246c-.01.012-.021.025-.031.037c-.301.374-.603.747-.905 1.121c-.205.246-.433.493-.649.738c-5.508 6.321-11.234 12.708-17.162 19.146c-.253.268-.507.536-.761.804c-.887.935-1.776 1.875-2.667 2.819c-.734.797-1.467 1.593-2.211 2.389c-3.534 3.801-7.141 7.615-10.819 11.447c-2.392 2.513-4.805 5.048-7.238 7.602c-1.423 1.5-2.858 3.04-4.298 4.599c-1.142 1.184-2.282 2.411-3.43 3.601c-.736.765-1.471 1.533-2.212 2.301c-5.727 5.933-11.321 12.031-16.731 18.283c-6.803 7.673-13.209 15.427-19.082 23.342c-4.912 6.898-9.476 13.847-13.593 20.853c-27.119 45.503-37.534 87.923-23.116 116.92c14.445 29.021 59.622 43.902 109.33 34.153c2.067-.283 4.133-.583 6.193-.896c2.086-.311 4.163-.643 6.236-.994a245.04 245.04 0 0 0 50.237-13.958V37.938z"></path><path fill="url(#IconifyId1813088fe1fbc01fb467)" d="M128.074 360.036c-65.502 0-118.664-53.162-118.664-118.664S62.572 122.708 128.074 122.708s118.664 53.162 118.664 118.664s-53.162 118.664-118.664 118.664zm0-224.896c-58.49 0-106.232 47.742-106.232 106.232s47.742 106.232 106.232 106.232s106.232-47.742 106.232-106.232S186.564 135.14 128.074 135.14z"></path></svg>
